<svg id="logo" data-name="logo" xmlns="http://www.w3.org/2000/svg" viewBox="0 0 748.35 102.05">
<defs>
    <style>
        .cls-1{fill:#16275D;}
        .cls-2{fill:#ED4C30;}
    </style>
</defs>
<title>logo</title>
<path class="cls-1" d="M333.61,35.49H304.55v14h29.06a4,4,0,0,1,4,4V85.54a4,4,0,0,1-4,4H297.55V35.94a18,18,0,0,0-14,17.52v50.06h50.06a18,18,0,0,0,18-18V53.46A18,18,0,0,0,333.61,35.49Z" transform="translate(-0.08 -1.47)"/>
<path class="cls-1" d="M258.21,49.49V85.54a4,4,0,0,1-4,4H218.18V53.46a4,4,0,0,1,4-4h36.06m14-14H222.16a18,18,0,0,0-18,18v50.06h50.06a18,18,0,0,0,18-18V35.49Z" transform="translate(-0.08 -1.47)"/>
<path class="cls-1" d="M178.84,85.54a4,4,0,0,1-4,4H138.81V53.46a4,4,0,0,1,4-4h36.06v7h14v-21H142.79a18,18,0,0,0-18,18v50.06h50.06a18,18,0,0,0,18-18v-3h-14Z" transform="translate(-0.08 -1.47)"/>
<path class="cls-1" d="M460.27,35.49a18,18,0,0,0-18,18v50.06h14V76h40V63h-40V53.46a4,4,0,0,1,4-4h50.06v-14Z" transform="translate(-0.08 -1.47)"/>
<path class="cls-1" d="M539.64,35.49a18,18,0,0,0-18,18v50.06h14V76h40v27.52a18,18,0,0,0,14-17.52V35.49Zm-4,27.52V53.46a4,4,0,0,1,4-4h36.06V63Z" transform="translate(-0.08 -1.47)"/>
<path class="cls-1" d="M739.24,35.49,714.41,60.31,691.13,37a18.07,18.07,0,0,0-9.19,9.19,17.86,17.86,0,0,0-1.54,7.24v50.06h14V58.68l20,20,20-20v44.84a18,18,0,0,0,14-17.52V35.49Z" transform="translate(-0.08 -1.47)"/>
<path class="cls-1" d="M380.9,49.49H431v-14H380.9a18,18,0,0,0-18,18v50.06h50.51a18,18,0,0,0,17.52-14h-54V76h40V63h-40V53.46A4,4,0,0,1,380.9,49.49Z" transform="translate(-0.08 -1.47)"/>
<path class="cls-1" d="M619,35.49a18,18,0,0,0-18,18v50.06h14V53.46a4,4,0,0,1,4-4h36.06V59a4,4,0,0,1-4,4H622V74.87l28.65,28.65h18.38L642.54,77h8.54a18,18,0,0,0,18-18V35.49Z" transform="translate(-0.08 -1.47)"/>
<path class="cls-2" d="M78.93,52.49H68.11l34-51H27.3A27.29,27.29,0,0,0,.08,28.68v74.83H74.92a27.29,27.29,0,0,0,27.21-27.21V17.69Z" transform="translate(-0.08 -1.47)"/>
</svg>